<svg class="main-footer__resistor" version="1.1" xmlns="http://www.w3.org/2000/svg" xmlns:xlink="http://www.w3.org/1999/xlink" x="0px" y="0px" viewBox="94.4 -4.8 800 800" enable-background="new 94.4 -4.8 800 800" xml:space="preserve">
  <polyline class="path animate" fill="none" stroke="#242526" stroke-width="46" stroke-linecap="round" stroke-linejoin="round" stroke-miterlimit="10" points="176,395.2 263,395.2 313,246 369,544 441,246 502,544 567,246 635,544 684,246 730,395.2 813,395.2"></polyline>
  <!-- <polyline class="path animate" fill="none" stroke="#D4855C" stroke-width="46" stroke-linecap="round" stroke-linejoin="round" stroke-miterlimit="10" points="176,395.2 263,395.2 313,246 369,544 441,246 502,544 567,246 635,544 684,246 730,395.2 813,395.2"></polyline> -->
  <!-- <polyline class="path animate" fill="none" stroke="#686C6F" stroke-width="46" stroke-linecap="round" stroke-linejoin="round" stroke-miterlimit="10" points="176,395.2 263,395.2 313,246 369,544 441,246 502,544 567,246 635,544 684,246 730,395.2 813,395.2"></polyline> -->
</svg>
